<svg xmlns="http://www.w3.org/2000/svg" xmlns:xlink="http://www.w3.org/1999/xlink" width="800px" height="800px" viewBox="0 0 64 64" aria-hidden="true" role="img" class="iconify iconify--emojione" preserveAspectRatio="xMidYMid meet">

<g fill="#ffffff">

<path d="M38.5 42.6c-4.6-1.5-3.3-2.6 1.1-4.3c2.1-.8.8-2.5.9-3.8c0-.6 2.5-.5 2.3-2.9c-.1-1.7-3.8-4.1-4.8-5.1c-.6-.6 1.2-2.2-.1-3.6c-1.7-1.9-2-5.3-3-7.2c0 0 .8-1.2.2-1.9C29.9 8 10.6 8.6 5.6 17.2c-5.5 9.7-5.6 23 5.9 30.2c5.1 3.2-1.4 14.6-1.4 14.6h20.3c0-1.9-2.3-8.9 1.7-8.6c3.4.3 7.7.1 7.3-3.8c-.1-1.2-.2-2.2.6-3.2c.8-.9 2-2.7-1.5-3.8" fill="#ffffff">

</path>

<path d="M43.1 40.8L62 43.3v-5z" fill="#ffffff">

</path>

<path d="M58.5 57.1l2-4.3l-17.4-9.4z" fill="#ffffff">

</path>

<path d="M60.5 28.8l-2-4.3l-15.4 13.6z" fill="#ffffff">

</path>

</g>

</svg>